# xmcd CD database file
#
# Track frame offsets:
#	150
#	18512
#	39769
#	59870
#	82595
#	99678
#	116377
#	138411
#	161945
#	182661
#	202580
#	224893
#	250459
#	271476
#
# Disc length: 3900 seconds
#
# Revision: 4
# Processed by: cddbd v1.5PL3 Copyright (c) Steve Scherf et al.
# Submitted via: CDex 1.51
#
DISCID=c80f3a0e
DTITLE=TMN - TMN BLUE (NAOTO KINE PRESENTS)
DYEAR=1994
DGENRE=JPop
TTITLE0=TIME PASSED ME BY
TTITLE1=GIRL
TTITLE2=TIME
TTITLE3=CONFESSION〜告白〜
TTITLE4=HERE, THERE and EVERYWHERE
TTITLE5=SAD EMOTION
TTITLE6=GIRL FRIEND
TTITLE7=1/2の助走
TTITLE8=TELEPHONE LINE
TTITLE9=FIGHTING
TTITLE10=THIS NIGHT
TTITLE11=FOOL ON THE PLANET
TTITLE12=WINTER COMES AROUND
TTITLE13=ANOTHER MEETING
EXTD=YEAR: 1994
EXTT0=
EXTT1=
EXTT2=
EXTT3=
EXTT4=
EXTT5=
EXTT6=
EXTT7=1/2 no joso
EXTT8=
EXTT9=
EXTT10=
EXTT11=
EXTT12=
EXTT13=
PLAYORDER=
